<svg xmlns="http://www.w3.org/2000/svg" width="430" height="430" style="width:100%;height:100%;transform:translate3d(0,0,0);content-visibility:visible" viewBox="0 0 430 430"><defs><clipPath id="g"><path d="M0 0h430v430H0z"/></clipPath><clipPath id="k"><path d="M0 0h430v430H0z"/></clipPath><clipPath id="d"><path d="M0 0h430v430H0z"/></clipPath><clipPath id="h"><path d="M0 0h430v430H0z"/></clipPath><clipPath id="f"><path d="M0 0h430v430H0z"/></clipPath><filter id="l" width="300%" height="300%" x="-100%" y="-100%"><feGaussianBlur result="filter_result_0"/></filter><filter id="j" width="300%" height="300%" x="-100%" y="-100%"><feGaussianBlur result="filter_result_0" stdDeviation="52.5 52.5"/></filter><mask id="m" mask-type="alpha"><use xmlns:ns1="http://www.w3.org/1999/xlink" ns1:href="#a"/></mask><mask id="i" mask-type="alpha"><use xmlns:ns2="http://www.w3.org/1999/xlink" ns2:href="#b"/></mask><g id="a" fill-opacity="0" clip-path="url(#d)" style="display:none"><g style="display:none"><path stroke-linecap="round" stroke-linejoin="round" class="primary"/><path class="secondary"/><path class="secondary"/></g><g stroke-linecap="round" stroke-linejoin="round" style="display:none"><path class="primary"/><path class="primary"/></g></g><g id="b" fill-opacity="0" clip-path="url(#f)" style="display:block"><g stroke-width="12.95" style="display:block"><path stroke="#121331" stroke-linecap="round" stroke-linejoin="round" d="M118.337 278.361s-8.476 1.088-12.28 5.805c-5.957 7.385-5.831 19.632 15.055 19.632H296.4" class="primary"/><path stroke="#08A88A" d="M134.062 303.798c15.316 0 27.75 12.435 27.75 27.75 0 15.316-12.434 27.75-27.75 27.75-15.315 0-27.75-12.434-27.75-27.75 0-15.315 12.435-27.75 27.75-27.75zm164.188 0c15.315 0 27.75 12.435 27.75 27.75 0 15.316-12.435 27.75-27.75 27.75s-27.75-12.434-27.75-27.75c0-15.315 12.435-27.75 27.75-27.75z" class="secondary"/></g><path stroke="#121331" stroke-linecap="round" stroke-linejoin="round" stroke-width="3.5" d="M-47-38h6.392c3.378 0 7.837 2.865 9.059 10.116C-29.029-12.923-24 17-24 17m-6.939-45.027L45.5-28h1.25l-.487 1.681-6.828 23.551c-1.27 4.381-2.643 8.16-5.702 10.711-3.325 2.773-7.335 3.483-11.948 4.009l-45.41 5.173s-2.291.294-3.319 1.569" class="primary" style="display:block" transform="matrix(3.7 0 0 3.7 205.75 214.998)"/></g></defs><g clip-path="url(#g)"><g clip-path="url(#h)" mask="url(#i)" style="display:block"><g filter="url(#j)" transform="rotate(-94 238.762 -16.565)scale(2.4)"><g class="design"><path fill="#4AE0EB" d="M0-250c137.975 0 250 112.025 250 250S137.975 250 0 250-250 137.975-250 0-137.975-250 0-250" class="primary"/></g><g class="design"><path fill="#CA5EED" d="M113.242-295.384c97.478 0 176.5 79.022 176.5 176.5s-79.022 176.5-176.5 176.5c-43.948 0-74.396-34.057-105.29-60.631-37.631-32.369-71.21-62.338-71.21-115.869 0-97.478 79.022-176.5 176.5-176.5" class="secondary"/></g></g></g><g clip-path="url(#k)" filter="url(#l)" mask="url(#m)" style="display:none"><g class="design"><path class="primary"/></g><g class="design"><path class="secondary"/></g></g></g></svg>